<?xml version="1.0" encoding="UTF-8"?>
<svg id="Ebene_1" data-name="Ebene 1" xmlns="http://www.w3.org/2000/svg" xmlns:xlink="http://www.w3.org/1999/xlink" viewBox="0 0 2594.67 1631.11">
  <defs>
    <style>
      .cls-1 {
        clip-path: url(#clippath-4);
      }

      .cls-2 {
        fill: #9baf87;
      }

      .cls-3, .cls-4, .cls-5, .cls-6, .cls-7, .cls-8 {
        fill: none;
      }

      .cls-9 {
        font-size: 48px;
      }

      .cls-9, .cls-10 {
        font-family: ArialMT, Arial;
      }

      .cls-4, .cls-5, .cls-7, .cls-8 {
        stroke-width: 10px;
      }

      .cls-4, .cls-7, .cls-8 {
        stroke-miterlimit: 10;
      }

      .cls-4, .cls-8 {
        stroke: #9baf87;
      }

      .cls-11 {
        isolation: isolate;
      }

      .cls-11, .cls-12 {
        font-family: Arial-ItalicMT, Arial;
        font-size: 36px;
        font-style: italic;
      }

      .cls-10 {
        fill: #aea486;
        font-size: 72px;
      }

      .cls-13 {
        fill: #e69f00;
      }

      .cls-14 {
        clip-path: url(#clippath-1);
      }

      .cls-15 {
        clip-path: url(#clippath-5);
      }

      .cls-5 {
        stroke: #d7d2c3;
      }

      .cls-5, .cls-6 {
        stroke-miterlimit: 8;
      }

      .cls-16 {
        clip-path: url(#clippath-3);
      }

      .cls-6 {
        stroke: #000;
        stroke-width: 13.75px;
      }

      .cls-17 {
        fill-rule: evenodd;
      }

      .cls-18 {
        clip-path: url(#clippath-2);
      }

      .cls-7 {
        stroke: #e69f00;
      }

      .cls-7, .cls-8 {
        stroke-dasharray: 10 10;
      }

      .cls-19 {
        clip-path: url(#clippath);
      }
    </style>
    <clipPath id="clippath">
      <rect class="cls-3" x="1801.63" y="846.99" width="494.69" height="494.69"/>
    </clipPath>
    <clipPath id="clippath-1">
      <rect class="cls-3" x="1801.63" y="846.99" width="494.69" height="494.69"/>
    </clipPath>
    <clipPath id="clippath-2">
      <rect class="cls-3" x="1801.63" y="846.99" width="494.69" height="494.69"/>
    </clipPath>
    <clipPath id="clippath-3">
      <rect class="cls-3" x="370.69" y="215.73" width="234.44" height="233.69"/>
    </clipPath>
    <clipPath id="clippath-4">
      <rect class="cls-3" x="370.69" y="215.73" width="234.44" height="233.69"/>
    </clipPath>
    <clipPath id="clippath-5">
      <rect class="cls-3" x="370.69" y="215.73" width="234.44" height="233.69"/>
    </clipPath>
  </defs>
  <rect class="cls-5" x="1607.4" y="275.67" width="881.63" height="1076.62"/>
  <g>
    <line class="cls-4" x1="421.59" y1="847.67" x2="1733.79" y2="1089.84"/>
    <polygon class="cls-2" points="1725.6 1106.08 1758.48 1094.4 1731.93 1071.75 1725.6 1106.08"/>
  </g>
  <g>
    <line class="cls-4" x1="994.04" y1="458.33" x2="1782.31" y2="903.8"/>
    <polygon class="cls-2" points="1769.28 916.48 1804.17 916.15 1786.45 886.09 1769.28 916.48"/>
  </g>
  <g>
    <line class="cls-4" x1="748.7" y1="1276.11" x2="1751.67" y2="1276.11"/>
    <polygon class="cls-2" points="1746.56 1293.56 1776.78 1276.11 1746.56 1258.66 1746.56 1293.56"/>
  </g>
  <g>
    <line class="cls-7" x1="652.07" y1="433.68" x2="541.49" y2="592.77"/>
    <polygon class="cls-13" points="530.07 578.61 527.15 613.39 558.73 598.53 530.07 578.61"/>
  </g>
  <g>
    <line class="cls-7" x1="859.22" y1="448.56" x2="663.22" y2="1040.11"/>
    <polygon class="cls-13" points="648.26 1029.77 655.32 1063.95 681.39 1040.75 648.26 1029.77"/>
  </g>
  <g>
    <line class="cls-8" x1="556.62" y1="654.15" x2="690.71" y2="454.22"/>
    <polygon class="cls-2" points="702.36 468.19 704.7 433.37 673.37 448.74 702.36 468.19"/>
  </g>
  <g>
    <line class="cls-8" x1="693.89" y1="1066.93" x2="887.67" y2="469.89"/>
    <polygon class="cls-2" points="902.69 480.13 895.42 446 869.49 469.36 902.69 480.13"/>
  </g>
  <g>
    <circle cx="462.11" cy="1120.51" r="24.66" transform="translate(-749.95 1118.64) rotate(-67.5)"/>
    <path class="cls-17" d="M530.15,1248.98l-17.48-73.98c-.62-2.49-1.87-4.98-3.75-6.84-7.49-6.22-16.23-10.57-26.21-13.68-6.87-1.24-13.73-2.49-20.6-2.49s-13.73,1.24-20.6,3.11c-9.99,2.49-18.73,7.46-26.22,13.67-1.87,1.87-3.12,4.36-3.75,6.84l-17.48,73.98c0,.62-.62,1.87-.62,3.11,0,6.84,5.62,12.44,12.48,12.44,5.62,0,10.61-4.36,11.86-9.32l13.11-54.09v174.08h24.97v-111.91h12.49v111.91h24.97v-174.7l13.1,54.09c1.25,4.97,6.24,9.32,11.87,9.32,6.87,0,12.48-5.6,12.48-12.44,0-1.24-.62-2.49-.62-3.11Z"/>
  </g>
  <g>
    <ellipse cx="620.3" cy="1120.51" rx="25.04" ry="24.66"/>
    <path class="cls-17" d="M688.1,1247.74l-22.41-77.09c-.62-3.1-2.49-5.59-4.98-6.84-7.47-4.98-16.18-8.08-26.15-10.57-4.98-.62-9.34-1.24-14.32-1.24s-9.34.62-14.32,1.24c-9.96,1.87-18.68,5.59-26.15,10.57-2.49,1.87-4.36,3.73-4.98,6.84l-23.04,77.09c-1.87,6.84,1.87,13.68,8.72,15.55,1.24.62,2.49.62,3.74.62,5.6,0,10.58-3.73,11.83-8.7l19.3-65.28v21.76l-23.04,77.09h16.81v87.04h24.91v-87.04h12.46v87.04h24.9v-87.04h16.81l-23.03-77.09v-21.76l19.3,65.28c1.87,5.59,6.85,8.7,11.83,8.7,1.24,0,2.49,0,3.74-.62,6.22-1.87,9.96-8.7,8.09-15.55Z"/>
  </g>
  <g class="cls-19">
    <g class="cls-14">
      <g class="cls-18">
        <g>
          <g>
            <path d="M2223.53,971.23c0-11.37-9.21-20.58-20.58-20.58h-308.71c-11.37,0-20.58,9.22-20.58,20.58v216.09h349.86v-216.09ZM2192.66,1156.45h-288.13v-174.93h288.13v174.93Z"/>
            <path d="M2079.47,1207.91v5.14c.17,2.66-1.84,4.97-4.51,5.14-.21.02-.42.02-.64,0h-51.46c-2.66.17-4.96-1.84-5.14-4.51-.02-.21-.02-.42,0-.64v-5.14h-205.8v10.29c0,11.37,9.22,20.58,20.58,20.58h432.18c11.37,0,20.58-9.22,20.58-20.58v-10.29h-205.8Z"/>
          </g>
          <path d="M2048.6,996.96c-39.78,0-72.03,32.25-72.03,72.03s32.25,72.03,72.03,72.03,72.03-32.25,72.03-72.03-32.25-72.03-72.03-72.03ZM2053.74,1074.13h23.62c-2.69,17.74-10.96,34.16-23.62,46.87v-46.87ZM2053.74,1063.84v-46.92c12.67,12.72,20.94,29.17,23.62,46.92h-23.62ZM2043.45,1063.84h-22.84c2.56-17.45,10.55-33.66,22.84-46.3v46.3ZM2043.45,1074.13v46.31c-12.27-12.67-20.26-28.86-22.84-46.31h22.84ZM2010.26,1063.84h-22.02c2.28-26.95,22.17-49.11,48.72-54.28-14.67,14.64-24.06,33.73-26.7,54.28ZM2010.26,1074.13c2.65,20.59,12.08,39.71,26.81,54.33-26.59-5.16-46.52-27.34-48.82-54.33h22.02ZM2087.7,1074.13h21.24c-2.25,26.65-21.72,48.66-47.9,54.13,14.66-14.57,24.04-33.62,26.65-54.13ZM2087.7,1063.84c-2.63-20.45-11.95-39.46-26.5-54.07,26.1,5.53,45.49,27.5,47.75,54.07h-21.24Z"/>
        </g>
      </g>
    </g>
  </g>
  <path class="cls-13" d="M1872.28,400.96h-719.84v10.43h719.84s0-10.43,0-10.43ZM1157.66,390.53l-31.3,15.65,31.3,15.65v-31.3Z"/>
  <path class="cls-2" d="M1130.16,356.19h716.01v10.43h-716.01v-10.43ZM1840.96,345.76l31.3,15.65-31.3,15.65v-31.3Z"/>
  <path class="cls-6" d="M2015.4,897.07v-134.67h-33.95l67.91-67.91,67.91,67.91h-33.95v134.67h-67.91Z"/>
  <path d="M1022.51,122.8l2.19-5.96,2.06-4.17,9.35,4.63-1.94,3.92.23-.52-2.09,5.69-9.8-3.59ZM1032.88,103.04l1.88-2.47,4.33-4.54,1.54-1.37,6.93,7.8-1.38,1.23.3-.3-3.98,4.17.38-.44-1.71,2.24-8.29-6.33ZM1049.74,87.75l4.4-2.58,5.27-2.46,4.42,9.45-5.05,2.36.43-.23-4.2,2.46-5.27-9ZM1070.33,79.32l1.4-.34,6.18-.93,3.75-.18.51,10.42-3.48.17.52-.05-5.69.85.47-.09-1.15.29-2.5-10.13ZM1093.1,78.41l4.01.62,6.43,1.64.71.26-3.56,9.8-.48-.17.49.15-5.93-1.52.5.1-3.76-.58,1.59-10.31ZM1114.37,85.17l1.24.6,5.47,3.35,2.92,2.23-6.33,8.29-2.71-2.07.43.3-5.02-3.08.44.24-1.01-.49,4.57-9.38ZM1132.35,99.1l2.5,2.78,3.61,5,.79,1.31-8.94,5.38-.68-1.12.24.36-3.32-4.6.35.44-2.31-2.57,7.75-6.98ZM1144.44,118.36l1.91,5.28,1.3,5.19-10.11,2.53-1.24-4.93.16.51-1.83-5.03,9.81-3.56ZM1149,140.18l.1,1.95-.31,6.36-.48,3.13-10.32-1.58.44-2.86-.05.54.29-5.83v.51l-.08-1.7,10.42-.51ZM1145.61,162.75l-1.73,4.73-2.65,5.34-9.35-4.63,2.52-5.08-.22.52,1.63-4.47,9.8,3.59ZM1134.9,182.32l-1.09,1.43-4.33,4.54-2.51,2.23-6.93-7.8,2.35-2.09-.3.3,3.98-4.17-.37.44.92-1.2,8.29,6.33ZM1117.71,197.24l-3.27,1.92-5.63,2.63-1.35.47-3.45-9.84,1.1-.39-.48.2,5.17-2.42-.43.23,3.07-1.8,5.27,9ZM1096.5,205.4l-6.32.95-5.48-.73,1.39-10.34,4.74.64h-1.46s5.58-.83,5.58-.83l1.55,10.32ZM1085.33,216.52l-27.67-21.41,33.73-9.29-6.06,30.7Z"/>
  <g>
    <circle cx="162.42" cy="641.76" r="24.66" transform="translate(-492.64 546.22) rotate(-67.5)"/>
    <path class="cls-17" d="M230.46,770.23l-17.48-73.98c-.62-2.49-1.87-4.98-3.75-6.84-7.49-6.22-16.23-10.58-26.22-13.68-6.87-1.24-13.73-2.49-20.6-2.49s-13.73,1.24-20.6,3.11c-9.99,2.48-18.73,7.46-26.22,13.67-1.87,1.87-3.12,4.35-3.74,6.84l-17.48,73.98c0,.62-.62,1.87-.62,3.11,0,6.84,5.62,12.44,12.48,12.44,5.62,0,10.61-4.35,11.86-9.32l13.11-54.09v174.08h24.97v-111.91h12.48v111.91h24.97v-174.7l13.11,54.09c1.25,4.97,6.24,9.32,11.86,9.32,6.87,0,12.48-5.6,12.48-12.44,0-1.24-.62-2.49-.62-3.11Z"/>
  </g>
  <g>
    <ellipse cx="320.61" cy="641.76" rx="25.04" ry="24.66"/>
    <path class="cls-17" d="M388.41,768.99l-22.42-77.09c-.62-3.1-2.49-5.59-4.98-6.84-7.47-4.98-16.19-8.08-26.15-10.57-4.98-.62-9.34-1.24-14.32-1.24s-9.34.62-14.32,1.24c-9.96,1.87-18.68,5.59-26.15,10.57-2.49,1.87-4.36,3.73-4.98,6.84l-23.04,77.09c-1.87,6.84,1.87,13.68,8.72,15.55,1.25.62,2.49.62,3.74.62,5.6,0,10.58-3.73,11.83-8.7l19.3-65.28v21.76l-23.04,77.09h16.81v87.04h24.91v-87.04h12.45v87.04h24.91v-87.04h16.81l-23.04-77.09v-21.76l19.3,65.28c1.87,5.59,6.85,8.7,11.83,8.7,1.25,0,2.49,0,3.74-.62,6.23-1.87,9.96-8.7,8.09-15.55Z"/>
  </g>
  <path d="M501.83,586.59h-56.68c-1.42,0-2.58,1.16-2.58,2.58v108.21c0,1.42,1.16,2.58,2.58,2.58h56.68c1.42,0,2.58-1.16,2.58-2.58v-108.21c0-1.42-1.16-2.58-2.58-2.58ZM468.34,591.74h10.3c1.42,0,2.58,1.16,2.58,2.58s-1.16,2.57-2.58,2.57h-10.3c-1.42,0-2.58-1.15-2.58-2.57s1.16-2.58,2.58-2.58ZM496.68,684.49h-46.37v-82.44h46.37v82.44Z"/>
  <path d="M801.53,1066.07h-56.68c-1.42,0-2.58,1.15-2.58,2.56v107.55c0,1.41,1.16,2.56,2.58,2.56h56.68c1.42,0,2.58-1.15,2.58-2.56v-107.55c0-1.41-1.16-2.56-2.58-2.56ZM768.03,1071.19h10.31c1.42,0,2.58,1.15,2.58,2.56s-1.16,2.56-2.58,2.56h-10.31c-1.42,0-2.58-1.15-2.58-2.56s1.16-2.56,2.58-2.56ZM796.38,1163.38h-46.38v-81.94h46.38v81.94Z"/>
  <g>
    <ellipse cx="963.25" cy="249.5" rx="50.83" ry="51.21"/>
    <path class="cls-17" d="M1054.75,344.11c-13.98-11.44-31.78-19.06-49.57-24.15-12.71-3.81-26.68-6.35-41.93-6.35-13.98,0-27.96,2.54-41.94,6.35-17.79,5.08-35.58,13.98-49.56,24.15-6.36,5.08-10.17,12.71-10.17,20.33v50.83h203.34v-50.83c0-7.63-3.82-15.25-10.17-20.33Z"/>
  </g>
  <g>
    <g>
      <path d="M831.72,344.34c-8.9-7.28-19.35-13.01-30.36-17.52v14.97c5.52,1.55,9.61,6.66,9.61,12.61,0,7.26-5.88,13.08-13.2,13.08s-13.2-5.83-13.2-13.08c0-5.95,4.08-11.06,9.6-12.61v-17.72c-3.91-1.4-7.86-2.66-11.81-3.79-12.66-3.8-26.59-6.33-41.78-6.33-13.68,0-27.36,2.45-41.05,6.14,0,.28.02.55.02.83v12.98c13.1,1.91,23.11,12.98,23.11,26.47,0,1.78-1.02,3.44-2.56,4.33v31.31c0,3.82-2.96,7-6.68,7.51-.52,1.53-1.93,2.67-3.6,2.67h-1.28c-2.82,0-5.14-2.29-5.14-5.09s2.31-5.09,5.14-5.09h1.28c1.67,0,2.95.89,3.6,2.29.9-.38,1.54-1.27,1.54-2.29v-31.31c-1.54-.76-2.57-2.42-2.57-4.33,0-9.16-7.44-16.54-16.68-16.54s-16.69,7.38-16.69,16.54c0,1.78-1.02,3.44-2.56,4.33v31.31c0,1.02.64,1.91,1.54,2.29.64-1.27,2.05-2.29,3.59-2.29h1.29c2.82,0,5.13,2.29,5.13,5.09s-2.31,5.09-5.13,5.09h-1.29c-1.66,0-3.08-1.15-3.59-2.67-3.73-.51-6.68-3.69-6.68-7.51v-31.31c-1.54-.76-2.57-2.42-2.57-4.33,0-13.49,10.02-24.56,23.11-26.47v-11.44c-15.35,5.23-30.33,13.08-42.44,21.89-6.33,5.07-10.13,12.67-10.13,20.27v50.67h202.58v-50.67c0-7.6-3.8-15.2-10.13-20.27Z"/>
      <ellipse cx="740.56" cy="250.47" rx="50.64" ry="50.67"/>
    </g>
    <path d="M789.36,354.4c0,4.64,3.72,8.33,8.4,8.33s8.4-3.69,8.4-8.33-3.72-8.33-8.4-8.33-8.4,3.69-8.4,8.33ZM797.76,348.45c3.32,0,6,2.66,6,5.95s-2.69,5.95-6,5.95-6-2.66-6-5.95,2.69-5.95,6-5.95Z"/>
  </g>
  <g class="cls-16">
    <g class="cls-1">
      <g class="cls-15">
        <g>
          <path d="M556.45,362.07h-136.32v-82.5h136.32v82.5ZM571.05,274.73c0-5.34-4.38-9.71-9.74-9.71h-146.05c-5.36,0-9.74,4.37-9.74,9.71v101.91h165.53v-101.91Z"/>
          <path d="M502.89,386.34v2.43c0,1.46-.97,2.43-2.43,2.43h-24.34c-1.46,0-2.43-.97-2.43-2.43v-2.43h-97.37v4.85c0,5.34,4.38,9.71,9.74,9.71h204.48c5.36,0,9.74-4.37,9.74-9.71v-4.85h-97.37Z"/>
        </g>
      </g>
    </g>
  </g>
  <path class="cls-17" d="M2066.99,552.33h114v21.27h-114v-21.27ZM2031.53,552.33h21.23v21.27h-21.23v-21.27ZM1903.3,552.33h114v21.27h-114v-21.27ZM2018.84,470.56c-4.6,0-8.33,3.73-8.33,8.35s3.73,8.35,8.33,8.35,8.33-3.73,8.33-8.35-3.73-8.35-8.33-8.35ZM1985.95,470.56c-4.61,0-8.33,3.73-8.33,8.35s3.73,8.35,8.33,8.35,8.33-3.73,8.33-8.35-3.73-8.35-8.33-8.35ZM1953.06,470.56c-4.61,0-8.33,3.73-8.33,8.35s3.73,8.35,8.33,8.35,8.33-3.73,8.33-8.35-3.73-8.35-8.33-8.35ZM1936.77,450.56h210.76c5.21,0,9.43,4.23,9.43,9.45v37.8c0,5.21-4.22,9.45-9.43,9.45h-94.76v32.89h-21.23v-32.89h-94.76c-5.21,0-9.43-4.23-9.43-9.45v-37.8c0-5.22,4.22-9.45,9.43-9.45ZM2018.84,400.88c-4.6,0-8.33,3.74-8.33,8.35s3.73,8.35,8.33,8.35,8.33-3.74,8.33-8.35-3.73-8.35-8.33-8.35ZM1985.95,400.88c-4.61,0-8.33,3.74-8.33,8.35s3.73,8.35,8.33,8.35,8.33-3.74,8.33-8.35-3.73-8.35-8.33-8.35ZM1953.06,400.88c-4.61,0-8.33,3.74-8.33,8.35s3.73,8.35,8.33,8.35,8.33-3.74,8.33-8.35-3.73-8.35-8.33-8.35ZM1936.77,380.88h210.76c5.21,0,9.43,4.23,9.43,9.45v37.79c0,5.22-4.22,9.45-9.43,9.45h-210.76c-5.21,0-9.43-4.23-9.43-9.45v-37.79c0-5.22,4.22-9.45,9.43-9.45ZM2018.84,331.09c-4.6,0-8.33,3.74-8.33,8.35s3.73,8.35,8.33,8.35,8.33-3.74,8.33-8.35-3.73-8.35-8.33-8.35ZM1985.95,331.09c-4.61,0-8.33,3.74-8.33,8.35s3.73,8.35,8.33,8.35,8.33-3.74,8.33-8.35-3.73-8.35-8.33-8.35ZM1953.06,331.09c-4.61,0-8.33,3.74-8.33,8.35s3.73,8.35,8.33,8.35,8.33-3.74,8.33-8.35-3.73-8.35-8.33-8.35ZM1936.77,311.09h210.76c5.21,0,9.43,4.23,9.43,9.45v37.79c0,5.22-4.22,9.45-9.43,9.45h-210.76c-5.21,0-9.43-4.23-9.43-9.45v-37.79c0-5.22,4.22-9.45,9.43-9.45Z"/>
  <text class="cls-11" transform="translate(2105.45 840.92)"><tspan x="0" y="0">Integration</tspan></text>
  <text class="cls-9" transform="translate(428.11 1426.33)"><tspan x="0" y="0">An- und</tspan><tspan x="0" y="57.6">Zugehörige</tspan></text>
  <text class="cls-9" transform="translate(128.56 951.67)"><tspan x="0" y="0">Person mit</tspan><tspan x="0" y="57.6">Epilepsie</tspan></text>
  <text class="cls-9" transform="translate(366.78 173.59)"><tspan x="0" y="0">Mitarbeiter:in im Epilepsiezentrum</tspan></text>
  <text class="cls-9" transform="translate(1840.56 1289.44)"><tspan x="0" y="0">Bewertungsplattform</tspan></text>
  <text class="cls-9" transform="translate(1973.89 631.67)"><tspan x="0" y="0">EpiDat</tspan></text>
  <text class="cls-12" transform="translate(2256.56 1493.89)"><tspan class="cls-2"><tspan x="0" y="0">Dateneingabe</tspan></tspan><tspan class="cls-13"><tspan x="0" y="43.2">Datenausgabe</tspan></tspan></text>
  <text class="cls-10" transform="translate(2052.11 245.89)"><tspan x="0" y="0">EXTENSIBLE</tspan></text>
</svg>