<?xml version="1.0" encoding="UTF-8"?>
<svg xmlns="http://www.w3.org/2000/svg" viewBox="0 0 1039.23 1238.17">
  <defs>
    <style>
      .cls-1 {
        fill: #fff;
      }

      .cls-2 {
        fill: #182260;
      }
    </style>
  </defs>
  <g id="backup_Form" data-name="backup Form">
    <polygon class="cls-1" points="623.11 922.67 671.17 894.92 671.17 749.43 623.11 777.18 623.11 922.67"/>
    <polygon class="cls-1" points="623.11 1109.73 671.17 1081.98 671.17 936.49 623.11 964.24 623.11 1109.73"/>
    <polygon class="cls-1" points="623.11 735.57 671.17 707.83 671.17 562.34 623.11 590.08 623.11 735.57"/>
    <path class="cls-1" d="M623.11,922.67l-101.94,58.86-150-86.6v-145.49s150,86.6,150,86.6l101.94-58.86M623.11,964.24l-101.94,58.86-150-86.6v145.49s150,86.6,150,86.6l101.94-58.86M623.11,590.08l-101.94,58.86-150-86.6v145.49s150,86.6,150,86.6l101.94-58.86"/>
    <g id="R">
      <path class="cls-1" d="M71.17,346.16l300-172.21c11.71-6.85,45.08-28.73,103.04-39.3,60.26-10.99,101.5-7.29,136.13,18.59,43.02,32.15,50.28,82.5,14.18,125.53-.56.66-.06,1.67.8,1.61,12.23-.73,71.9-3.6,149.84,4.03,87.62,8.57,162.54,37.14,188.11,51.9,13.26,7.65,8.44,9.56-4.8,17.24l-137.3,79.46s-38.18-27-74.17-38.56c-27-8.67-103.23-16.9-117.26-16.51-14.03.39-117.92-19.73-120.63,15.54-1.6,20.78,20.05,49.91,47.55,65.69,37.68,21.63,44.77,23.25,96.13,41.73,21.18,7.62,24.07,16.41,10.18,23.39l-35.71,20.64-106.09,61.02L71.17,346.16ZM412.31,371.09l48.02-29.57c62.99-36.28,78.77-81.22,24.31-112.81-54.48-31.6-107.71-16.39-136.82.75-18.39,10.83-90.02,51.96-90.02,51.96l154.51,89.67Z"/>
    </g>
    <polygon class="cls-1" points="821.17 475.77 821.17 995.38 971.17 908.78 971.17 389.16 821.17 475.77"/>
    <polygon class="cls-1" points="371.17 562.37 371.17 707.83 221.17 621.23 221.17 662.83 371.17 749.43 371.17 894.92 221.17 808.32 221.17 849.86 371.17 936.49 371.17 1081.98 71.17 908.78 71.17 389.16 371.17 562.37"/>
  </g>
  <g id="Ebene_72" data-name="Ebene 72">
    <g id="Hintergrund">
      <path class="cls-2" d="M1003.23,268.08L555.62,9.65c-22.28-12.86-49.72-12.86-72,0L36,268.08C13.72,280.94,0,304.71,0,330.43v576.82c0,25.72,13.72,49.49,36,62.35l447.62,258.43c22.28,12.86,49.72,12.86,72,0l447.62-258.43c22.28-12.86,36-36.63,36-62.35V330.43c0-25.72-13.72-49.49-36-62.35Z"/>
    </g>
    <g id="Form">
      <g id="R-2" data-name="R">
        <path class="cls-1" d="M80.68,351.3c-12.02-6.94-12-24.29.04-31.2l284.29-163.19c12.16-7.11,46.8-29.83,106.96-40.79,62.55-11.4,105.36-7.57,141.31,19.3,44.66,33.38,52.2,85.65,14.7,130.32-.57.68-.07,1.71.82,1.66,12.64-.75,74.61-3.74,155.57,4.18,51.6,5.05,133.89,37.61,175.29,55.15,10.64,4.51,11.54,19.25,1.52,25.02l-126.3,73.1c-11.91,6.89-33.4,4.61-46.97-5.26-12.98-9.44-60.73-29.77-83.51-33.94-28.96-5.3-58.68-10-73.24-9.6-14.56.4-131.19-23.5-134.01,13.11-1.66,21.57,23.04,54.63,51.59,71.02,20.26,11.63,80.68,30.14,110.93,43.62,8.98,4,9.53,16.56.97,21.39l-29.79,16.81-66.57,38.29c-26.96,15.51-60.14,15.48-87.07-.07L80.68,351.3ZM397.37,355.53c6.37,3.7,14.25,3.59,20.52-.27l39.67-24.42c65.38-37.66,81.76-84.31,25.23-117.1-56.55-32.8-111.81-17.01-142.03.78-13.09,7.71-52.16,30.2-75.43,43.58-8.01,4.6-8.03,16.14-.04,20.78l132.07,76.65Z"/>
      </g>
      <path class="cls-1" d="M821.17,496.55v457.85c0,18.48,20,30.02,36,20.78l78-45.03c22.28-12.86,36-36.63,36-62.35v-486.03s0,7.4-10.92,13.7l-121.07,69.9c-11.14,6.43-18,18.32-18,31.18Z"/>
      <path class="cls-1" d="M623.11,777.18l12.06-6.96c16-9.24,36,2.31,36,20.78v66.97c0,22.86-12.2,43.99-32,55.43l-16.06,9.27v-145.49ZM623.11,1109.73l16.06-9.27c19.8-11.43,32-32.56,32-55.43v-66.97c0-18.48-20-30.02-36-20.78l-12.06,6.96v145.49ZM623.11,735.57l16.06-9.27c19.8-11.43,32-32.56,32-55.43v-116.52s.08,7.96-6.89,11.95l-41.17,23.77v145.49ZM623.11,777.18l-59.94,34.61c-25.99,15.01-58.01,15.01-84,0l-108-62.35v145.49s108,62.35,108,62.35c25.99,15.01,58.01,15.01,84,0l59.94-34.61M623.11,1109.73l-59.94,34.61c-25.99,15.01-58.01,15.01-84,0l-108-62.35v-145.49s108,62.35,108,62.35c25.99,15.01,58.01,15.01,84,0l59.94-34.61M623.11,735.57l-59.94,34.61c-25.99,15.01-58.01,15.01-84,0l-108-62.35v-145.49s108,62.35,108,62.35c25.99,15.01,58.01,15.01,84,0l59.94-34.61M86.03,397.74c-14.86-8.58-14.86-14.28-14.86-14.28v483.74c0,25.72,13.72,49.49,36,62.35l264,152.42v-145.49s-150-86.64-150-86.64v-41.54s150,86.6,150,86.6v-145.49s-150-86.6-150-86.6v-41.59l150,86.6v-145.46S86.03,397.74,86.03,397.74Z"/>
    </g>
    <g id="Sterne">
      <g id="Ebene_41_Kopie_2" data-name="Ebene 41 Kopie 2">
        <polygon class="cls-2" points="443.57 835.89 449.42 859.7 465.83 870.39 453.07 877.01 457.3 901.09 443.39 880.89 429.38 884.98 433.78 865.88 421.14 844.59 437.55 852.85 443.57 835.89"/>
        <polygon class="cls-2" points="390.04 805.12 395.9 828.93 412.31 839.62 399.55 846.25 403.78 870.33 389.87 850.12 375.86 854.21 380.26 835.11 367.61 813.82 384.03 822.08 390.04 805.12"/>
      </g>
      <g id="Ebene_41_Kopie_2_Kopie" data-name="Ebene 41 Kopie 2 Kopie">
        <polygon class="cls-2" points="443.57 1022.89 449.42 1046.7 465.83 1057.39 453.07 1064.01 457.3 1088.09 443.39 1067.89 429.38 1071.98 433.78 1052.88 421.14 1031.59 437.55 1039.85 443.57 1022.89"/>
        <polygon class="cls-2" points="390.04 992.12 395.9 1015.93 412.31 1026.62 399.55 1033.25 403.78 1057.33 389.87 1037.12 375.86 1041.21 380.26 1022.11 367.61 1000.82 384.03 1009.08 390.04 992.12"/>
        <polygon class="cls-2" points="337.17 961.43 343.02 985.24 359.43 995.93 346.67 1002.55 350.9 1026.63 336.99 1006.43 322.98 1010.51 327.38 991.42 314.73 970.12 331.15 978.39 337.17 961.43"/>
        <polygon class="cls-2" points="285.61 931.76 291.46 955.57 307.87 966.26 295.11 972.88 299.34 996.96 285.43 976.76 271.43 980.85 275.83 961.75 263.18 940.46 279.6 948.72 285.61 931.76"/>
      </g>
      <g id="Ebene_41_Kopie_2_Kopie_Kopie" data-name="Ebene 41 Kopie 2 Kopie Kopie">
        <polygon class="cls-2" points="443.57 652.89 449.42 676.7 465.83 687.39 453.07 694.01 457.3 718.09 443.39 697.89 429.38 701.98 433.78 682.88 421.14 661.59 437.55 669.85 443.57 652.89"/>
        <polygon class="cls-2" points="390.04 622.12 395.9 645.93 412.31 656.62 399.55 663.25 403.78 687.33 389.87 667.12 375.86 671.21 380.26 652.11 367.61 630.82 384.03 639.08 390.04 622.12"/>
        <polygon class="cls-2" points="337.17 591.43 343.02 615.24 359.43 625.93 346.67 632.55 350.9 656.63 336.99 636.43 322.98 640.51 327.38 621.42 314.73 600.12 331.15 608.39 337.17 591.43"/>
      </g>
    </g>
  </g>
  <g id="Ebene_72_Kopie" data-name="Ebene 72 Kopie">
    <g id="Hintergrund_Kopie" data-name="Hintergrund Kopie">
      <path class="cls-2" d="M1003.23,268.08L555.62,9.65c-22.28-12.86-49.72-12.86-72,0L36,268.08C13.72,280.94,0,304.71,0,330.43v576.82c0,25.72,13.72,49.49,36,62.35l447.62,258.43c22.28,12.86,49.72,12.86,72,0l447.62-258.43c22.28-12.86,36-36.63,36-62.35V330.43c0-25.72-13.72-49.49-36-62.35Z"/>
    </g>
    <g id="Form_Kopie" data-name="Form Kopie">
      <g id="R-3" data-name="R">
        <path class="cls-1" d="M80.68,351.3c-12.02-6.94-12-24.29.04-31.2l284.29-163.19c12.16-7.11,46.8-29.83,106.96-40.79,62.55-11.4,105.36-7.57,141.31,19.3,44.66,33.38,52.2,85.65,14.7,130.32-.57.68-.07,1.71.82,1.66,12.64-.75,74.61-3.74,155.57,4.18,51.6,5.05,133.89,37.61,175.29,55.15,10.64,4.51,11.54,19.25,1.52,25.02l-126.3,73.1c-11.91,6.89-33.4,4.61-46.97-5.26-12.98-9.44-60.73-29.77-83.51-33.94-28.96-5.3-58.68-10-73.24-9.6-14.56.4-131.19-23.5-134.01,13.11-1.66,21.57,23.04,54.63,51.59,71.02,20.26,11.63,80.68,30.14,110.93,43.62,8.98,4,9.53,16.56.97,21.39l-29.79,16.81-66.57,38.29c-26.96,15.51-60.14,15.48-87.07-.07L80.68,351.3ZM390.9,358.66c6.28,3.65,14.05,3.6,20.29-.13l46.37-27.69c65.38-37.66,81.76-84.31,25.23-117.1-56.55-32.8-108.35-14.52-138.57,3.27l-81.85,46.66c-8.07,4.57-8.13,16.17-.11,20.82l128.63,74.16Z"/>
      </g>
      <path class="cls-1" d="M821.17,496.55v457.85c0,18.48,20,30.02,36,20.78l78-45.03c22.28-12.86,36-36.63,36-62.35v-486.03s0,7.4-10.92,13.7l-121.07,69.9c-11.14,6.43-18,18.32-18,31.18Z"/>
      <path class="cls-1" d="M623.11,777.18l12.06-6.96c16-9.24,36,2.31,36,20.78v66.97c0,22.86-12.2,43.99-32,55.43l-16.06,9.27v-145.49ZM623.11,1109.73l16.06-9.27c19.8-11.43,32-32.56,32-55.43v-66.97c0-18.48-20-30.02-36-20.78l-12.06,6.96v145.49ZM623.11,735.57l16.06-9.27c19.8-11.43,32-32.56,32-55.43v-116.52s.08,7.96-6.89,11.95l-41.17,23.77v145.49ZM623.11,777.18l-59.94,34.61c-25.99,15.01-58.01,15.01-84,0l-108-62.35v145.49s108,62.35,108,62.35c25.99,15.01,58.01,15.01,84,0l59.94-34.61M623.11,1109.73l-59.94,34.61c-25.99,15.01-58.01,15.01-84,0l-108-62.35v-145.49s108,62.35,108,62.35c25.99,15.01,58.01,15.01,84,0l59.94-34.61M623.11,735.57l-59.94,34.61c-25.99,15.01-58.01,15.01-84,0l-108-62.35v-145.49s108,62.35,108,62.35c25.99,15.01,58.01,15.01,84,0l59.94-34.61M86.03,397.74c-14.86-8.58-14.86-14.28-14.86-14.28v483.74c0,25.72,13.72,49.49,36,62.35l264,152.42v-145.49s-150-86.64-150-86.64v-41.54s150,86.6,150,86.6v-145.49s-150-86.6-150-86.6v-41.59l150,86.6v-145.46S86.03,397.74,86.03,397.74Z"/>
    </g>
    <g id="Sterne_Kopie" data-name="Sterne Kopie">
      <g id="Ebene_41_Kopie_2_Kopie_2" data-name="Ebene 41 Kopie 2 Kopie 2">
        <polygon class="cls-2" points="443.57 835.89 449.42 859.7 465.83 870.39 453.07 877.01 457.3 901.09 443.39 880.89 429.38 884.98 433.78 865.88 421.14 844.59 437.55 852.85 443.57 835.89"/>
        <polygon class="cls-2" points="390.04 805.12 395.9 828.93 412.31 839.62 399.55 846.25 403.78 870.33 389.87 850.12 375.86 854.21 380.26 835.11 367.61 813.82 384.03 822.08 390.04 805.12"/>
      </g>
      <g id="Ebene_41_Kopie_2_Kopie_Kopie_2" data-name="Ebene 41 Kopie 2 Kopie Kopie 2">
        <polygon class="cls-2" points="443.57 1022.89 449.42 1046.7 465.83 1057.39 453.07 1064.01 457.3 1088.09 443.39 1067.89 429.38 1071.98 433.78 1052.88 421.14 1031.59 437.55 1039.85 443.57 1022.89"/>
        <polygon class="cls-2" points="390.04 992.12 395.9 1015.93 412.31 1026.62 399.55 1033.25 403.78 1057.33 389.87 1037.12 375.86 1041.21 380.26 1022.11 367.61 1000.82 384.03 1009.08 390.04 992.12"/>
        <polygon class="cls-2" points="337.17 961.43 343.02 985.24 359.43 995.93 346.67 1002.55 350.9 1026.63 336.99 1006.43 322.98 1010.51 327.38 991.42 314.73 970.12 331.15 978.39 337.17 961.43"/>
        <polygon class="cls-2" points="285.61 931.76 291.46 955.57 307.87 966.26 295.11 972.88 299.34 996.96 285.43 976.76 271.43 980.85 275.83 961.75 263.18 940.46 279.6 948.72 285.61 931.76"/>
      </g>
      <g id="Ebene_41_Kopie_2_Kopie_Kopie_Kopie" data-name="Ebene 41 Kopie 2 Kopie Kopie Kopie">
        <polygon class="cls-2" points="443.57 652.89 449.42 676.7 465.83 687.39 453.07 694.01 457.3 718.09 443.39 697.89 429.38 701.98 433.78 682.88 421.14 661.59 437.55 669.85 443.57 652.89"/>
        <polygon class="cls-2" points="390.04 622.12 395.9 645.93 412.31 656.62 399.55 663.25 403.78 687.33 389.87 667.12 375.86 671.21 380.26 652.11 367.61 630.82 384.03 639.08 390.04 622.12"/>
        <polygon class="cls-2" points="337.17 591.43 343.02 615.24 359.43 625.93 346.67 632.55 350.9 656.63 336.99 636.43 322.98 640.51 327.38 621.42 314.73 600.12 331.15 608.39 337.17 591.43"/>
      </g>
    </g>
  </g>
</svg>