<?xml version="1.0" encoding="UTF-8"?>
<svg id="Var_klein" data-name="Var klein" xmlns="http://www.w3.org/2000/svg" viewBox="0 0 1096.07 420.22">
  <defs>
    <style>
      .cls-1 {
        fill: #fff;
      }

      .cls-2 {
        fill: #182260;
      }
    </style>
  </defs>
  <g id="EpiRate_Kopie" data-name="EpiRate Kopie">
    <path class="cls-2" d="M255.03,40.35L188,1.65c-3.34-1.93-7.45-1.93-10.78,0l-67.03,38.7c-3.34,1.93-5.39,5.49-5.39,9.34v86.38c0,3.85,2.06,7.41,5.39,9.34l67.03,38.7c3.34,1.93,7.45,1.93,10.78,0l67.03-38.7c3.34-1.93,5.39-5.49,5.39-9.34V49.69c0-3.85-2.06-7.41-5.39-9.34Z"/>
    <g id="R">
      <path class="cls-1" d="M116.87,52.81c-1.8-1.04-1.8-3.64,0-4.67l42.57-24.44c1.82-1.06,7.01-4.47,16.02-6.11,9.37-1.71,15.78-1.13,21.16,2.89,6.69,5,7.82,12.83,2.2,19.52-.09.1,0,.26.12.25,1.89-.11,11.17-.56,23.3.63,7.73.76,20.05,5.63,26.25,8.26,1.59.68,1.73,2.88.23,3.75l-18.91,10.95c-1.78,1.03-5,.69-7.03-.79-1.94-1.41-9.09-4.46-12.51-5.08-4.34-.79-8.79-1.5-10.97-1.44-2.18.06-19.65-3.52-20.07,1.96-.25,3.23,3.45,8.18,7.73,10.64,3.03,1.74,12.08,4.51,16.61,6.53,1.35.6,1.43,2.48.15,3.2l-4.46,2.52-9.97,5.73c-4.04,2.32-9.01,2.32-13.04-.01l-59.38-34.28ZM163.33,53.92c.94.55,2.1.54,3.04-.02l6.94-4.15c9.79-5.64,12.24-12.63,3.78-17.54-8.47-4.91-16.23-2.17-20.75.49l-12.26,6.99c-1.21.68-1.22,2.42-.02,3.12l19.26,11.11Z"/>
    </g>
    <path class="cls-1" d="M227.77,74.57v68.57c0,2.77,3,4.5,5.39,3.11l11.68-6.74c3.34-1.93,5.39-5.49,5.39-9.34V57.38s0,1.11-1.64,2.05l-18.13,10.47c-1.67.96-2.7,2.74-2.7,4.67Z"/>
    <path class="cls-1" d="M160.38,106.21l16.17,9.34c3.89,2.25,8.69,2.25,12.58,0l8.98-5.18,2.4-1.39c2.97-1.71,4.79-4.88,4.79-8.3v-17.45s.01,1.19-1.03,1.79l-6.17,3.56-8.98,5.18c-3.89,2.25-8.69,2.25-12.58,0l-16.17-9.34-42.7-24.65c-2.23-1.28-2.23-2.14-2.23-2.14v72.44c0,3.85,2.06,7.41,5.39,9.34l39.54,22.83,16.17,9.34c3.89,2.25,8.69,2.25,12.58,0l8.98-5.18,2.4-1.39c2.97-1.71,4.79-4.88,4.79-8.3v-10.03c0-2.77-3-4.5-5.39-3.11l-1.81,1.04-8.98,5.18c-3.89,2.25-8.69,2.25-12.58,0l-16.17-9.34-22.46-12.97v-6.22l22.46,12.97,16.17,9.34c3.89,2.25,8.69,2.25,12.58,0l8.98-5.18,2.4-1.39c2.97-1.71,4.79-4.88,4.79-8.3v-10.03c0-2.77-3-4.5-5.39-3.11l-1.81,1.04-8.98,5.18c-3.89,2.25-8.69,2.25-12.58,0l-16.17-9.34-22.46-12.97v-6.23l22.46,12.97ZM170.32,100.52l.9-2.54.88,3.57,2.46,1.6-1.91.99.63,3.61-2.08-3.03-2.1.61.66-2.86-1.89-3.19,2.46,1.24ZM160.38,94.94l1.93.97.9-2.54.88,3.57,2.46,1.6-1.91.99.63,3.61-2.08-3.03-2.1.61.66-2.86-1.36-2.29-.53-.9.53.27ZM154.38,91.31l.9-2.54.88,3.57,2.46,1.6-1.91.99.63,3.61-2.08-3.03-2.1.61.66-2.86-1.89-3.19,2.46,1.24ZM170.32,155.93l.9-2.54.88,3.57,2.46,1.6-1.91.99.63,3.61-2.08-3.03-2.1.61.66-2.86-1.89-3.19,2.46,1.24ZM160.38,150.35l1.93.97.9-2.54.88,3.57,2.46,1.6-1.91.99.63,3.61-2.08-3.03-2.1.61.66-2.86-1.36-2.29-.53-.9.53.27ZM154.38,146.72l.9-2.54.88,3.57,2.46,1.6-1.91.99.63,3.61-2.08-3.03-2.1.61.66-2.86-1.89-3.19,2.46,1.24ZM146.66,142.28l.9-2.54.88,3.57,2.46,1.6-1.91.99.63,3.61-2.08-3.03-2.1.61.66-2.86-1.89-3.19,2.46,1.24ZM170.32,127.92l.9-2.54.88,3.57,2.46,1.6-1.91.99.63,3.61-2.08-3.03-2.1.61.66-2.86-1.89-3.19,2.46,1.24ZM162.3,123.32l.9-2.54.88,3.57,2.46,1.6-1.91.99.63,3.61-2.08-3.03-2.1.61.66-2.86-1.89-3.19,2.46,1.24Z"/>
  </g>
  <g id="EpiDat_Kopie" data-name="EpiDat Kopie">
    <path class="cls-2" d="M255.03,274.8l-67.03-38.7c-3.34-1.93-7.45-1.93-10.78,0l-67.03,38.7c-3.34,1.93-5.39,5.49-5.39,9.34v86.38c0,3.85,2.06,7.41,5.39,9.34l67.03,38.7c3.34,1.93,7.45,1.93,10.78,0l67.03-38.7c3.34-1.93,5.39-5.49,5.39-9.34v-86.38c0-3.85-2.06-7.41-5.39-9.34Z"/>
    <g id="D">
      <path class="cls-1" d="M117.07,287.28c-1.62-.93-1.62-3.79,0-4.72l47.69-27.55c11.17-6.45,24.93-6.45,36.1,0l46.29,26.75c2.61,1.51,2.61,5.28,0,6.78l-57.2,33.01c-4.18,2.41-9.32,2.41-13.5,0l-59.38-34.28ZM196.67,307.74c.74.43,1.65.43,2.4,0,0,0,9.39-5.28,13.53-7.74,1.82-1.08,3.71-2.72,5.15-4.37,2.74-3.17,2.11-8.01-1.35-10.36-5.61-3.8-14.02-8.82-18.58-11.47-2.74-1.59-6.91-4.22-11.24-6.33-7.85-3.84-16.86-4.56-25.23-2.03-1.61.49-3.02.96-3.97,1.35-4.6,1.92-13.65,7.43-13.65,7.43-.91.63-1.02,2.22.02,2.92l52.93,30.6Z"/>
    </g>
    <path class="cls-1" d="M248.62,294.47l-50.51,29.16-8.98,5.18c-3.89,2.25-8.69,2.25-12.58,0l-16.17-9.34h0s-42.7-24.65-42.7-24.65c-2.23-1.28-2.23-2.14-2.23-2.14v72.44c0,3.85,2.06,7.41,5.39,9.34l39.54,22.83,16.17,9.34c3.89,2.25,8.69,2.25,12.58,0l8.98-5.18,46.73-26.98c3.34-1.93,5.39-5.49,5.39-9.34v-9.34c0-2.77-3-4.5-5.39-3.11l-46.73,26.98-8.98,5.18c-3.89,2.25-8.69,2.25-12.58,0l-16.17-9.34-22.46-12.97v-6.22l22.46,12.97,16.17,9.34c3.89,2.25,8.69,2.25,12.58,0l8.98-5.19,46.72-26.93c3.34-1.93,5.4-5.49,5.4-9.34v-9.34c0-2.77-2.99-4.5-5.39-3.11l-46.73,26.94-8.98,5.19c-3.89,2.25-8.69,2.25-12.58,0l-16.17-9.34-22.46-12.97v-6.23l22.46,12.97,16.17,9.34c3.89,2.25,8.69,2.25,12.58,0l8.98-5.18,46.73-26.99c3.34-1.93,5.39-5.49,5.39-9.34v-3.5s0-.02,0-.03v-13.13s0,1.1-1.62,2.04ZM229.07,370.96l14.35-8.52c.6-.36,1.36.08,1.36.77v1.56c0,.8-.43,1.53-1.12,1.93l-14.05,8.05c-.6.34-1.35-.09-1.35-.78v-1.59c0-.58.3-1.13.8-1.42ZM223.79,372.44c1.36-.75,2.49.08,2.53,1.85.03,1.74-1.02,3.74-2.35,4.48-1.33.74-2.47-.04-2.54-1.77-.07-1.75.99-3.81,2.35-4.56ZM217.33,376.27c1.36-.75,2.49.08,2.53,1.85.03,1.74-1.02,3.74-2.35,4.48-1.33.74-2.47-.04-2.54-1.77-.07-1.75.99-3.81,2.35-4.56ZM229.09,343.14l14.35-8.52c.6-.36,1.36.08,1.36.77v1.56c0,.8-.43,1.53-1.12,1.93l-14.05,8.05c-.6.34-1.35-.09-1.35-.78v-1.59c0-.58.3-1.13.8-1.42ZM223.8,344.62c1.36-.75,2.49.08,2.53,1.85.03,1.74-1.02,3.74-2.35,4.48-1.33.74-2.47-.04-2.54-1.77-.07-1.75.99-3.81,2.35-4.56ZM217.34,348.46c1.36-.75,2.49.08,2.53,1.85.03,1.74-1.02,3.74-2.35,4.48-1.33.74-2.47-.04-2.54-1.77-.07-1.75.99-3.81,2.35-4.56ZM217.53,327.04c-1.33.74-2.47-.04-2.54-1.77-.07-1.75.99-3.81,2.35-4.56,1.36-.75,2.49.08,2.53,1.85.03,1.74-1.02,3.74-2.35,4.48ZM223.99,323.21c-1.33.74-2.47-.04-2.54-1.77-.07-1.75.99-3.81,2.35-4.56,1.36-.75,2.49.08,2.53,1.85.03,1.74-1.02,3.74-2.35,4.48ZM244.8,309.21c0,.8-.43,1.53-1.12,1.93l-14.05,8.05c-.6.34-1.35-.09-1.35-.78v-1.59c0-.58.3-1.13.8-1.42l14.35-8.52c.6-.36,1.36.08,1.36.77v1.56Z"/>
  </g>
  <g>
    <path class="cls-2" d="M279.09,139.21h102.8v8.6h-46.2v134.2h-10.4v-134.2h-46.2v-8.6Z"/>
    <path class="cls-2" d="M483.89,147.81h-74.2v56.8h70v8.6h-70v60.2h74.8v8.6h-85.4v-142.8h84.8v8.6Z"/>
    <path class="cls-2" d="M516.89,139.21l70.6,105.8c4.4,6.6,9.2,14.8,13.8,21.4,0-7.8-.2-17-.2-24.8v-102.4h10.6v142.8h-12l-68.6-103.2c-5.2-7.6-10.4-16.4-15.6-23.8,0,9,.2,19.2.2,28.2v98.8h-10.6v-142.8h11.8Z"/>
    <path class="cls-2" d="M686.28,275.21c18.8,0,36.8-7.4,36.8-29,0-20-14.6-25.6-35.2-31.6-32.2-9.6-47.8-17.6-48-40.8,0-23.8,20.4-36.4,44.2-36.4s44.2,12.2,47.4,39.8h-10.6c-2.6-21.2-17.6-31.2-36.8-31.2s-33.6,9.8-33.6,27.6,11,24,40,32.2c22,6.4,43.2,13.6,43.2,40.2,0,28.8-23.6,37.8-47.4,37.8s-49.4-13-51.6-44.6h10.6c1.8,23.8,21.6,36,41,36Z"/>
    <path class="cls-2" d="M766.69,139.21v142.8h-10.6v-142.8h10.6Z"/>
    <path class="cls-2" d="M794.28,139.21h46c24.4,0,43.8,12,43.8,37.2,0,16.6-12,28-26.2,31.4v.2c17.2,1.8,32.2,14.2,32.2,35.6,0,24.2-19,38.4-46.8,38.4h-49v-142.8ZM836.48,204.41c23.4,0,37-9.8,37-28s-12.2-28.6-35.6-28.6h-33v56.6h31.6ZM842.48,273.41c23.2,0,37-12.2,37-29.8,0-19.6-13.2-30.6-35.6-30.6h-39v60.4h37.6Z"/>
    <path class="cls-2" d="M922.28,139.21v134.2h72.8v8.6h-83.4v-142.8h10.6Z"/>
    <path class="cls-2" d="M1095.89,147.81h-74.2v56.8h70v8.6h-70v60.2h74.8v8.6h-85.4v-142.8h84.8v8.6Z"/>
  </g>
  <path class="cls-2" d="M84.93,147.81H10.73v56.8h70v8.6H10.73v60.2h74.8v8.6H.13v-142.8h84.8v8.6Z"/>
  <path class="cls-2" d="M260.48,160.58l-73.09,42.27c-3,1.74-6.7,1.74-9.7,0l-73.09-42.26v9.29l69.9,40.42-69.93,40.44v9.29l72.9-42.15c3.14-1.82,7.01-1.82,10.15,0l72.86,42.12v-9.3l-69.9-40.41,69.9-40.42v-9.31Z"/>
</svg>