<?xml version="1.0" encoding="UTF-8"?>
<svg id="Ebene_37_Kopie" data-name="Ebene 37 Kopie" xmlns="http://www.w3.org/2000/svg" viewBox="0 0 1041.46 1238.29">
  <defs>
    <style>
      .cls-1 {
        fill: #fff;
      }

      .cls-2 {
        fill: #182260;
      }
    </style>
  </defs>
  <path class="cls-2" d="M1004.65,268.76L557.04,10.33c-22.28-12.86-49.72-12.86-72,0L37.42,268.76c-22.28,12.86-36,36.63-36,62.35v576.82c0,25.72,13.72,49.49,36,62.35l447.62,258.43c22.28,12.86,49.72,12.86,72,0l447.62-258.43c22.28-12.86,36-36.63,36-62.35V331.12c0-25.72-13.72-49.49-36-62.35Z"/>
  <path class="cls-1" d="M972.88,470.79v23.37c0,25.72-13.72,49.49-35.99,62.35l-312.06,180.2v-145.49l337.27-194.69c10.78-6.29,10.79-13.62,10.79-13.62v55.5s0,32.2,0,32.2c0,.06,0,.12,0,.18ZM624.85,923.74l311.98-179.83c22.3-12.86,36.04-36.64,36.04-62.38v-62.35c0-18.47-19.99-30.02-35.99-20.79l-312.03,179.87v145.49ZM624.82,965.38l312.06-180.18c16-9.24,36,2.31,36,20.78v62.35c0,25.72-13.72,49.49-36,62.35l-312.06,180.18v-145.49ZM624.82,923.81l-59.94,34.61c-25.99,15.01-58.01,15.01-84,0l-108-62.35v-145.49s108,62.35,108,62.35c25.99,15.01,58.01,15.01,84,0l59.94-34.61M624.82,965.38l-59.94,34.61c-25.99,15.01-58.01,15.01-84,0l-108-62.35v145.49s108,62.35,108,62.35c25.99,15.01,58.01,15.01,84,0l59.94-34.61M624.82,591.22l-59.94,34.61c-25.99,15.01-58.01,15.01-84,0l-108-62.35v145.49s108,62.35,108,62.35c25.99,15.01,58.01,15.01,84,0l59.94-34.61M372.88,563.51v145.46s-150-86.6-150-86.6v41.59l150,86.6v145.49s-150-86.6-150-86.6v41.54s150,86.64,150,86.64v145.49s-264-152.42-264-152.42c-22.28-12.86-36-36.63-36-62.35v-483.74s0,5.7,14.86,14.28l285.14,164.63Z"/>
  <path class="cls-1" d="M83.42,352.1c-10.8-6.24-10.81-25.29-.01-31.54l318.47-183.95c74.58-43.08,166.48-43.07,241.04.03l309.1,178.65c17.43,10.07,17.42,35.24-.02,45.3l-381.95,220.41c-27.89,16.09-62.25,16.09-90.13,0L83.42,352.1ZM614.94,488.76c4.95,2.86,11.05,2.86,16,0,0,0,62.73-35.27,90.35-51.71,12.15-7.23,24.79-18.13,34.39-29.21,18.31-21.13,14.12-53.5-9.04-69.18-37.45-25.36-93.62-58.93-124.07-76.56-18.3-10.6-46.15-28.15-75.08-42.29-52.42-25.63-112.61-30.43-168.45-13.53-10.78,3.26-20.18,6.39-26.49,9.02-30.72,12.8-91.17,49.6-91.17,49.6-6.05,4.22-6.83,14.82.16,19.53l353.42,204.34Z"/>
  <g>
    <path class="cls-2" d="M770.17,584.04c.23,11.64-6.78,24.98-15.68,29.94-8.91,4.97-16.5-.26-16.93-11.82-.44-11.71,6.6-25.41,15.72-30.45,9.1-5.03,16.65.55,16.88,12.33Z"/>
    <path class="cls-2" d="M813.31,558.45c.23,11.64-6.78,24.98-15.68,29.94-8.91,4.97-16.5-.26-16.93-11.82-.44-11.71,6.6-25.41,15.72-30.45,9.1-5.03,16.65.55,16.88,12.33Z"/>
    <path class="cls-2" d="M826.33,545.73l.03,10.63c.01,4.61,5,7.49,9,5.2l93.79-53.76c4.61-2.64,7.46-7.55,7.46-12.87v-10.45c.01-4.66-5.06-7.55-9.07-5.17l-95.81,56.91c-3.35,1.99-5.4,5.61-5.39,9.51Z"/>
  </g>
  <g>
    <path class="cls-2" d="M770.13,769.34c.23,11.64-6.78,24.98-15.68,29.94-8.91,4.97-16.5-.26-16.93-11.82-.44-11.71,6.6-25.41,15.72-30.45,9.1-5.03,16.65.55,16.88,12.33Z"/>
    <path class="cls-2" d="M813.26,743.75c.23,11.64-6.78,24.98-15.68,29.94-8.91,4.97-16.5-.26-16.93-11.82-.44-11.71,6.6-25.41,15.72-30.45,9.1-5.03,16.65.55,16.88,12.33Z"/>
    <path class="cls-2" d="M826.29,731.02l.03,10.63c.01,4.61,5,7.49,9,5.2l93.79-53.76c4.61-2.64,7.46-7.55,7.46-12.87v-10.45c.01-4.66-5.06-7.55-9.07-5.17l-95.81,56.91c-3.35,1.99-5.4,5.61-5.39,9.51Z"/>
  </g>
  <g>
    <path class="cls-2" d="M770.03,955.07c.23,11.64-6.78,24.98-15.68,29.94-8.91,4.97-16.5-.26-16.93-11.82-.44-11.71,6.6-25.41,15.72-30.45,9.1-5.03,16.65.55,16.88,12.33Z"/>
    <path class="cls-2" d="M813.17,929.48c.23,11.64-6.78,24.98-15.68,29.94-8.91,4.97-16.5-.26-16.93-11.82-.44-11.71,6.6-25.41,15.72-30.45,9.1-5.03,16.65.55,16.88,12.33Z"/>
    <path class="cls-2" d="M826.19,916.75l.03,10.63c.01,4.61,5,7.49,9,5.2l93.79-53.76c4.61-2.64,7.46-7.55,7.46-12.87v-10.45c.01-4.66-5.06-7.55-9.07-5.17l-95.81,56.91c-3.35,1.99-5.4,5.61-5.39,9.51Z"/>
  </g>
</svg>